<svg width="18" height="18" viewBox="0 0 18 18" fill="none" xmlns="http://www.w3.org/2000/svg">
<path fill-rule="evenodd" clip-rule="evenodd" d="M8.99996 3.48C10.69 3.48 11.83 4.21 12.48 4.82L15.02 2.34C13.46 0.89 11.43 0 8.99996 0C5.47996 0 2.43996 2.02 0.959961 4.96L3.86996 7.22C4.59996 5.05 6.61996 3.48 8.99996 3.48Z" fill="#EA4335"/>
<path fill-rule="evenodd" clip-rule="evenodd" d="M17.64 9.19986C17.64 8.45986 17.58 7.91986 17.45 7.35986H9V10.6999H13.96C13.86 11.5299 13.32 12.7799 12.12 13.6199L14.96 15.8199C16.66 14.2499 17.64 11.9399 17.64 9.19986Z" fill="#4285F4"/>
<path fill-rule="evenodd" clip-rule="evenodd" d="M3.88 10.78C3.69 10.22 3.58 9.61996 3.58 8.99996C3.58 8.37996 3.69 7.77996 3.87 7.21996L0.96 4.95996C0.35 6.17996 0 7.54996 0 8.99996C0 10.45 0.35 11.82 0.96 13.04L3.88 10.78Z" fill="#FBBC05"/>
<path fill-rule="evenodd" clip-rule="evenodd" d="M8.99997 17.9998C11.43 17.9998 13.47 17.1998 14.96 15.8198L12.12 13.6198C11.36 14.1498 10.34 14.5198 8.99997 14.5198C6.61997 14.5198 4.59997 12.9498 3.87997 10.7798L0.969971 13.0398C2.44997 15.9798 5.47997 17.9998 8.99997 17.9998Z" fill="#34A853"/>
</svg>
